<svg xmlns="http://www.w3.org/2000/svg" viewBox="0 0 16 16"><title>Excel_16x</title><path d="M10,0H4A1,1,0,0,0,3,1V4l7,4,3,1.968L16,8V4Z" fill="#21a366"/><polygon points="16 8 3 8 3 12 10 13.4 16 12 16 8" fill="#107c41"/><path d="M3,12v3a1,1,0,0,0,1,1H15a1,1,0,0,0,1-1V12Z" fill="#185c37"/><path d="M10,4H3V14H9a2,2,0,0,0,2-2V5A1,1,0,0,0,10,4Z" opacity="0.5"/><rect y="3" width="10" height="10" rx="1" fill="#107c41"/><path d="M2.292,11,4.234,7.992,2.455,5H3.886l.971,1.912c.089.182.151.317.184.406h.013q.1-.217.2-.423L6.292,5H7.606L5.782,7.975,7.652,11h-1.4L5.133,8.9A1.806,1.806,0,0,1,5,8.619H4.983a1.34,1.34,0,0,1-.13.272L3.7,11Z" fill="#fff"/><path d="M16,1V4H10V0h5A1,1,0,0,1,16,1Z" fill="#33c481"/></svg>