<svg xmlns="http://www.w3.org/2000/svg" viewBox="0 0 16 16"><path d="M15 0H4a1 1 0 0 0-1 1v14a1.003 1.003 0 0 0 1 1h10.534A1.466 1.466 0 0 0 16 14.534V1a1.003 1.003 0 0 0-1-1z" fill="#ca64ea"/><path fill="#ae4bd5" d="M12 4h4v4h-4z"/><path d="M10 4H3v10h6.22A1.779 1.779 0 0 0 11 12.221V5a1 1 0 0 0-1-1z" opacity=".75"/><rect y="3" width="10" height="10" rx="1" fill="#7719aa"/><path d="M2.159 5h1.31l3.114 3.979q.176.268.264.431h.017a5.84 5.84 0 0 1-.038-.816V5h1.117v6H6.717l-3.21-4.088a3.158 3.158 0 0 1-.24-.423h-.02a8.38 8.38 0 0 1 .033.896V11H2.16z" fill="#fff"/><path fill="#9332bf" d="M12 8h4v4h-4z"/><path d="M12 12v4h3a1 1 0 0 0 1-1v-3z" fill="#7719aa"/></svg>