<svg xmlns="http://www.w3.org/2000/svg" viewBox="0 0 16 16"><title>PowerPoint_16x</title><path d="M8,0A8.024,8.024,0,0,0,0,8l10,2.363Z" fill="#ed6c47"/><path d="M8,0V8l4,2.59L16,8A8.024,8.024,0,0,0,8,0Z" fill="#ff8f6b"/><path d="M16,8A8,8,0,0,1,0,8Z" fill="#d35230"/><path d="M10,4H1.086A7.93,7.93,0,0,0,2.735,14H9a2,2,0,0,0,2-2V5A1,1,0,0,0,10,4Z" opacity="0.5"/><path d="M10,4H1.086A7.93,7.93,0,0,0,2.735,14H9a2,2,0,0,0,2-2V5A1,1,0,0,0,10,4Z" opacity="0.1"/><rect y="3" width="10" height="10" rx="1" fill="#c43e1c"/><path d="M5.336,5A2.275,2.275,0,0,1,6.9,5.481a1.766,1.766,0,0,1,.541,1.393,2.023,2.023,0,0,1-.267,1.042,1.836,1.836,0,0,1-.762.71,2.484,2.484,0,0,1-1.144.253H4.182V11H3.072V5ZM4.182,7.962h.956A1.2,1.2,0,0,0,5.983,7.7a1.012,1.012,0,0,0,.285-.777q0-.991-1.094-.991H4.182Z" fill="#fff"/></svg>