<svg xmlns="http://www.w3.org/2000/svg" viewBox="0 0 16 16"><title>Word_16x</title><path d="M16,4V1a1,1,0,0,0-1-1H4A1,1,0,0,0,3,1V4L9.5,5.379Z" fill="#41a5ee"/><polygon points="15.999 4 2.999 4 2.999 8 9.5 9.168 15.999 8 15.999 4" fill="#2b7cd3"/><polygon points="16 8 3 8 3 12 9.499 13 16 12 16 8" fill="#185abd"/><path d="M3,12v3a1,1,0,0,0,1,1H15a1,1,0,0,0,1-1V12Z" fill="#103f91"/><path d="M10,4,3,4,3,14H9a2,2,0,0,0,2-2V5A1,1,0,0,0,10,4Z" opacity="0.5"/><rect y="3" width="10" height="10" rx="1" fill="#185abd"/><path d="M3.352,9.54c.017.142.029.266.034.372h.019c.008-.1.023-.222.046-.364s.044-.262.065-.36L4.429,5H5.61l.945,4.126a6.267,6.267,0,0,1,.118.778h.016a6.348,6.348,0,0,1,.1-.753L7.543,5H8.618L7.3,11H6.039l-.9-3.975c-.026-.114-.056-.264-.089-.448s-.053-.318-.061-.4H4.972c-.01.1-.03.242-.061.435s-.054.335-.072.427L3.992,11H2.716L1.382,5H2.476L3.3,9.2C3.318,9.283,3.335,9.4,3.352,9.54Z" fill="#fff"/></svg>